<?xml version="1.0" encoding="UTF-8" standalone="no"?>
<!-- Created with Inkscape (http://www.inkscape.org/) -->

<svg
   xmlns:dc="http://purl.org/dc/elements/1.1/"
   xmlns:cc="http://creativecommons.org/ns#"
   xmlns:rdf="http://www.w3.org/1999/02/22-rdf-syntax-ns#"
   xmlns:svg="http://www.w3.org/2000/svg"
   xmlns="http://www.w3.org/2000/svg"
   xmlns:sodipodi="http://sodipodi.sourceforge.net/DTD/sodipodi-0.dtd"
   xmlns:inkscape="http://www.inkscape.org/namespaces/inkscape"
   width="720.55859mm"
   height="143.25648mm"
   viewBox="0 0 720.55859 143.25648"
   version="1.1"
   id="svg829"
   inkscape:version="0.92.2 5c3e80d, 2017-08-06"
   sodipodi:docname="drosophila2_1.svg"
   inkscape:export-filename="/Users/ahiram/Desktop/drosophila2.png"
   inkscape:export-xdpi="96"
   inkscape:export-ydpi="96">
  <defs
     id="defs823" />
  <sodipodi:namedview
     id="base"
     pagecolor="#ffffff"
     bordercolor="#666666"
     borderopacity="1.0"
     inkscape:pageopacity="0.0"
     inkscape:pageshadow="2"
     inkscape:zoom="0.24748737"
     inkscape:cx="1595.9627"
     inkscape:cy="-578.30891"
     inkscape:document-units="mm"
     inkscape:current-layer="layer1"
     showgrid="false"
     fit-margin-top="0"
     fit-margin-left="0"
     fit-margin-right="0"
     fit-margin-bottom="0"
     inkscape:window-width="1920"
     inkscape:window-height="1036"
     inkscape:window-x="1366"
     inkscape:window-y="-22"
     inkscape:window-maximized="0"
     showguides="true"
     inkscape:guide-bbox="true" />
  <metadata
     id="metadata826">
    <rdf:RDF>
      <cc:Work
         rdf:about="">
        <dc:format>image/svg+xml</dc:format>
        <dc:type
           rdf:resource="http://purl.org/dc/dcmitype/StillImage" />
        <dc:title></dc:title>
      </cc:Work>
    </rdf:RDF>
  </metadata>
  <g
     inkscape:label="レイヤー 1"
     inkscape:groupmode="layer"
     id="layer1"
     transform="translate(1862.5791,201.42435)">
    <g
       id="g835">
      <rect
         y="-201.42435"
         x="-1862.5791"
         height="143.25648"
         width="720.55859"
         id="rect846"
         style="fill:#002fa7;fill-opacity:1;stroke:none;stroke-width:0.22306785;stroke-miterlimit:4;stroke-dasharray:none;stroke-opacity:1" />
      <g
         transform="translate(-4.2621987,-0.86477344)"
         id="g844">
        <g
           id="g1451"
           transform="matrix(0.39408694,0,0,0.35440131,-1236.1497,-180.97544)"
           inkscape:export-filename="/Users/ahiram/Desktop/drosophila2.png"
           inkscape:export-xdpi="96"
           inkscape:export-ydpi="96">
          <path
             style="fill:#c8c8c8;fill-opacity:1;stroke:none;stroke-width:0.26458332px;stroke-linecap:butt;stroke-linejoin:miter;stroke-opacity:1"
             d="m -229.32004,4.4533557 c 0.51977,-5.6293836 1.02143,-12.5387702 -6.73037,-14.6030257 2.00616,-7.224943 14.30113,-10.407853 22.65171,-15.140347 -8.74171,3.376381 -18.19792,4.341286 -25.06453,14.046136 l -2.19778,-0.884251 c 5.32958,-7.373487 12.57687,-13.675309 26.41262,-16.29535 -11.92649,0.04953 -21.52915,5.521325 -29.68056,14.379362 -7.14589,-1.566384 -11.92187,-1.060089 -16.68339,-0.716287 3.27169,-6.192236 10.75009,-11.449648 16.14881,-17.169213 -7.17957,3.238978 -13.8079,10.612177 -20.50294,17.485121 -15.49322,0.06181 -24.55517,12.0152733 -31.16816,15.8444016 -1.84126,0.4405211 -3.04267,2.3892484 -6.01357,0.1670435 -5.07646,-5.096393 -9.59009,-14.0669951 -12.52825,-18.7088671 l 4.00717,8.2026006 -3.32203,-2.3143716 c 1.87241,1.9256834 2.50405,1.4366479 4.54815,4.7413811 l 3.05206,6.0413268 c 2.66602,5.1064718 -1.61177,4.7111854 -5.77971,5.078121 l -13.41363,-8.2332402 c -3.57255,-3.8573052 -2.82573,-3.768236 -3.92547,-7.1013487 0.29238,3.1088984 1.91804,6.1687557 -0.64538,4.2936612 l -11.01424,-6.7324952 7.55033,6.2474245 -6.74855,2.0379305 c 2.66004,-0.3737706 6.74855,-2.0379305 7.95127,-1.1024871 l 5.54585,3.5079127 -12.96258,5.0781208 c 8.01811,-1.73725182 11.99372,-5.8799294 15.80232,-3.1404169 2.99823,1.32977282 2.77092,2.3585081 9.58829,6.7485555 -9.1066,4.081865 -8.45971,4.670825 -12.82893,12.027129 0,0 -2.00451,5.078121 -2.00451,7.750816 4.23509,10.801695 5.00453,10.708654 13.49709,10.156241 -1.21338,5.780709 1.27857,8.152478 2.13816,13.497112 l -1.2027,11.893493 0.53453,11.492591 c 1.52675,3.587072 10.02261,15.367991 10.02261,15.367991 -4.32483,4.580694 2.96747,32.964573 6.68173,25.390613 l 11.0917,3.0736 c -0.28187,6.16396 -3.75049,9.87704 -5.05137,14.97392 -2.25924,8.85178 -0.291,15.36875 -4.87836,22.23812 -4.55863,6.82633 -15.65441,14.01734 -23.74623,18.91456 l -17.63979,14.43255 c -38.05621,15.72422 -25.6107,19.1482 3.74176,5.34539 2.67269,-1.60361 30.20146,-22.71791 33.40868,-23.78699 3.20725,-1.06908 8.55266,-6.949 8.55266,-6.949 15.60526,-9.94115 7.60909,-26.18984 15.76889,-41.96132 l 4.81084,-7.48355 9.62171,-6.41446 11.22532,0.53453 5.87993,2.6727 12.2944,9.6217 6.41446,3.74178 -7.48354,5.34539 -10.15625,-2.6727 -6.949,1.06908 -4.27632,8.01809 -5.87992,16.03617 -6.41446,17.63979 -2.67272,17.10524 -0.26726,8.55263 -25.3906,39.55589 -14.43257,21.38156 -2.67269,4.81085 -8.55263,2.13816 -7.48353,5.34539 c 0,0 -2.13817,4.2763 0.53454,5.3454 2.67269,1.06908 6.94899,0.53454 9.62171,-0.53456 2.67268,-1.06908 8.5526,-6.41445 8.5526,-6.41445 l 8.55263,-8.01809 12.29439,-17.63979 14.96711,-22.45064 c 10.56062,-11.81275 17.91556,-17.99451 17.10525,-32.60688 1.224,-16.69122 2.74793,-40.80752 13.89801,-44.90128 6.71617,-1.67904 19.56945,11.14381 18.70887,13.89801 8.39193,8.47019 22.1772,6.75952 30.9934,6.46509 7.82564,-0.26135 9.91139,10.7375 16.58058,0.48392 l 4.81085,-10.15624 v -1.06908 l 8.01808,16.57071 -4.27631,4.81085 c -3.15289,10.20515 -9.07161,28.87554 -13.09621,38.75408 -5.50578,17.3414 -3.18699,20.98978 2.6727,18.4416 8.39787,-11.07218 14.65839,-50.39242 21.11429,-58.26476 4.76632,15.47776 18.67861,14.03801 28.86511,8.01809 6.52491,2.79068 6.46021,4.62791 4.81085,11.22532 l -7.75081,5.34539 c 8.21134,5.43839 9.99668,-5.0396 9.77627,-0.90689 -0.66727,12.51099 10.96675,70.39697 8.13078,70.39697 1.45238,14.37318 29.267078,46.80981 22.450643,23.51972 -14.929813,-23.07207 -23.982563,-63.46928 -19.243403,-91.40618 l 5.34539,-8.01809 c 10.962684,15.07792 21.969109,-4.87074 29.399646,-11.22532 3.227165,6.32208 5.444868,11.09135 11.759858,13.89802 -4.22794,13.55002 -10.325767,21.50596 -1.603618,32.60688 l 26.726953,37.41773 20.579754,34.21052 4.543582,22.98516 c 12.6526174,24.20752 7.7296441,-14.68125 2.138156,-26.72696 -14.550871,-28.29275 -30.725362,-51.75342 -47.039436,-76.97362 l 10.156242,-13.89801 25.657874,19.77794 c 35.445341,18.8281 67.37189,28.05028 78.042702,-26.45967 6.620934,-29.58054 -10.92345,-64.60718 -36.348656,-84.72445 l 135.238383,59.86837 c 8.35121,3.85203 59.56935,26.22371 63.0756,18.17433 0.69307,-3.69435 -2.01786,-5.3463 -4.81085,-6.94901 -2.43097,-0.89135 -24.32153,-14.16528 -24.32153,-14.16528 -3.51995,-5.39766 26.57838,3.37545 22.71791,-0.53454 C 213.1005,158.28711 92.475256,108.04044 33.408692,79.442604 l -60.937451,-26.459683 -15.768903,-5.61266 c -7.222207,-7.099967 -11.424625,-8.160272 -20.847024,-11.091684 5.990535,-0.629858 10.738019,-2.10432 9.220799,-9.087166 l -0.935442,-8.68626 c 8.635476,-6.13271 31.435908,-3.516477 51.5830183,-2.539061 C -21.248512,13.827272 -36.723023,9.292149 -58.727252,15.204576 -72.01294,11.417636 -71.2287,11.009172 -84.858075,9.2843535 -97.917588,6.6474407 -73.049413,5.0064758 -35.546847,8.0816401 -41.352649,4.4125561 -80.911276,2.0287709 -94.212509,4.7407718 l -10.271641,4.9887129 c 0,0 -1.76477,-1.1073058 -0.61166,-5.1390376 12.666313,-6.0556967 20.11555,-3.0867342 47.674109,-4.62186348 -15.515626,-2.50756272 -36.030876,-2.13755042 -48.051139,1.26362928 1.86684,-8.5992837 -10.34301,-11.1683918 -10.51657,-11.1817684 16.191746,-1.0390405 26.603298,-0.5904845 44.490879,1.4822613 -27.604435,-4.6315858 -33.853719,-4.4999368 -49.274879,-3.7714168 -4.89066,-1.617578 -21.42644,-7.834108 -36.74705,-7.465029 -2.9208,-0.592535 16.4973,-1.444394 44.98893,-8.155714 -16.76462,2.985189 -38.73544,5.262524 -53.11672,6.41218 -5.0961,0.407387 -6.82008,-0.590416 -10.82284,-0.324209 -15.37263,1.089352 -22.6477,0.333618 -35.74091,8.204292 -6.73857,4.3286303 -14.59282,10.9591608 -17.10804,18.0205467 z"
             id="path1447"
             inkscape:connector-curvature="0"
             sodipodi:nodetypes="ccccccccccccccccccccccccccccccccccccccssccccccccccccccccccccccccccccccccccscccccccccccscccccccccccccccccccscccccccccccccccccccccsccc" />
          <path
             style="fill:#c70000;fill-opacity:1;stroke:none;stroke-width:0.26458332px;stroke-linecap:butt;stroke-linejoin:miter;stroke-opacity:1"
             d="m -235.46445,17.703343 c -20.68676,0.678141 -35.94663,5.326019 -45.97035,19.510675 -7.61127,11.434512 -13.63196,33.200548 -9.62172,37.685005 25.53266,39.438327 69.42038,21.250543 82.05175,-21.381562 1.34259,-14.323571 -1.48595,-27.580315 -26.45968,-35.814118 z"
             id="path1449"
             inkscape:connector-curvature="0"
             sodipodi:nodetypes="ccccc" />
        </g>
        <g
           id="g834"
           transform="translate(-143.62193,-25.657875)">
          <text
             id="text824"
             y="-114.82902"
             x="-1703.2865"
             style="font-style:normal;font-variant:normal;font-weight:normal;font-stretch:normal;font-size:50.79999924px;line-height:1.25;font-family:'Andale Mono';-inkscape-font-specification:'Andale Mono';letter-spacing:0px;word-spacing:0px;fill:#dcdcdc;fill-opacity:1;stroke:none;stroke-width:0.26458332"
             xml:space="preserve"><tspan
               style="font-style:normal;font-variant:normal;font-weight:normal;font-stretch:normal;font-size:50.79999924px;font-family:'Andale Mono';-inkscape-font-specification:'Andale Mono';fill:#dcdcdc;fill-opacity:1;stroke-width:0.26458332"
               y="-114.82902"
               x="-1703.2865"
               id="tspan822"
               sodipodi:role="line">Atsuki Hiramoto</tspan></text>
          <text
             id="text828"
             y="-71.461525"
             x="-1708.2227"
             style="font-style:normal;font-variant:normal;font-weight:normal;font-stretch:normal;font-size:50.79999924px;line-height:1.25;font-family:'Andale Mono';-inkscape-font-specification:'Andale Mono';letter-spacing:0px;word-spacing:0px;fill:#dcdcdc;fill-opacity:1;stroke:none;stroke-width:0.26458332"
             xml:space="preserve"><tspan
               style="font-style:normal;font-variant:normal;font-weight:normal;font-stretch:normal;font-size:50.79999924px;font-family:'Andale Mono';-inkscape-font-specification:'Andale Mono';fill:#dcdcdc;fill-opacity:1;stroke-width:0.26458332"
               y="-71.461525"
               x="-1708.2227"
               id="tspan826"
               sodipodi:role="line">Portfolio</tspan></text>
        </g>
      </g>
    </g>
  </g>
</svg>
