<?xml version="1.0" encoding="UTF-8" standalone="no"?>
<!-- Created with Inkscape (http://www.inkscape.org/) -->

<svg
   xmlns:dc="http://purl.org/dc/elements/1.1/"
   xmlns:cc="http://creativecommons.org/ns#"
   xmlns:rdf="http://www.w3.org/1999/02/22-rdf-syntax-ns#"
   xmlns:svg="http://www.w3.org/2000/svg"
   xmlns="http://www.w3.org/2000/svg"
   xmlns:sodipodi="http://sodipodi.sourceforge.net/DTD/sodipodi-0.dtd"
   xmlns:inkscape="http://www.inkscape.org/namespaces/inkscape"
   width="300.41095mm"
   height="316.44714mm"
   viewBox="0 0 300.41095 316.44714"
   version="1.1"
   id="svg8"
   inkscape:version="0.92.2 5c3e80d, 2017-08-06"
   sodipodi:docname="drosophila4.svg">
  <defs
     id="defs2">
    <marker
       inkscape:stockid="Arrow2Sstart"
       orient="auto"
       refY="0"
       refX="0"
       id="marker3490"
       style="overflow:visible"
       inkscape:isstock="true">
      <path
         id="path3488"
         style="fill:#dcdcdc;fill-opacity:1;fill-rule:evenodd;stroke:#dcdcdc;stroke-width:0.625;stroke-linejoin:round;stroke-opacity:1"
         d="M 8.7185878,4.0337352 -2.2072895,0.01601326 8.7185884,-4.0017078 c -1.7454984,2.3720609 -1.7354408,5.6174519 -6e-7,8.035443 z"
         transform="matrix(0.3,0,0,0.3,-0.69,0)"
         inkscape:connector-curvature="0" />
    </marker>
    <marker
       inkscape:isstock="true"
       style="overflow:visible"
       id="marker1632"
       refX="0"
       refY="0"
       orient="auto"
       inkscape:stockid="Arrow2Sstart"
       inkscape:collect="always">
      <path
         transform="matrix(0.3,0,0,0.3,-0.69,0)"
         d="M 8.7185878,4.0337352 -2.2072895,0.01601326 8.7185884,-4.0017078 c -1.7454984,2.3720609 -1.7354408,5.6174519 -6e-7,8.035443 z"
         style="fill:#dcdcdc;fill-opacity:1;fill-rule:evenodd;stroke:#dcdcdc;stroke-width:0.625;stroke-linejoin:round;stroke-opacity:1"
         id="path1630"
         inkscape:connector-curvature="0" />
    </marker>
    <marker
       inkscape:stockid="Arrow2Lstart"
       orient="auto"
       refY="0"
       refX="0"
       id="Arrow2Lstart"
       style="overflow:visible"
       inkscape:isstock="true">
      <path
         id="path1190"
         style="fill:#000000;fill-opacity:1;fill-rule:evenodd;stroke:#000000;stroke-width:0.625;stroke-linejoin:round;stroke-opacity:1"
         d="M 8.7185878,4.0337352 -2.2072895,0.01601326 8.7185884,-4.0017078 c -1.7454984,2.3720609 -1.7354408,5.6174519 -6e-7,8.035443 z"
         transform="matrix(1.1,0,0,1.1,1.1,0)"
         inkscape:connector-curvature="0" />
    </marker>
  </defs>
  <sodipodi:namedview
     id="base"
     pagecolor="#ffffff"
     bordercolor="#666666"
     borderopacity="1.0"
     inkscape:pageopacity="0.0"
     inkscape:pageshadow="2"
     inkscape:zoom="0.49497475"
     inkscape:cx="904.88531"
     inkscape:cy="552.71836"
     inkscape:document-units="mm"
     inkscape:current-layer="layer1"
     showgrid="false"
     inkscape:window-width="1920"
     inkscape:window-height="1036"
     inkscape:window-x="1392"
     inkscape:window-y="19"
     inkscape:window-maximized="0"
     fit-margin-top="0"
     fit-margin-left="0"
     fit-margin-right="0"
     fit-margin-bottom="0" />
  <metadata
     id="metadata5">
    <rdf:RDF>
      <cc:Work
         rdf:about="">
        <dc:format>image/svg+xml</dc:format>
        <dc:type
           rdf:resource="http://purl.org/dc/dcmitype/StillImage" />
        <dc:title></dc:title>
      </cc:Work>
    </rdf:RDF>
  </metadata>
  <g
     inkscape:label="レイヤー 1"
     inkscape:groupmode="layer"
     id="layer1"
     transform="translate(165.17258,118.33685)">
    <g
       id="g3651">
      <rect
         y="-118.33685"
         x="-165.17258"
         height="316.44714"
         width="300.41095"
         id="rect3565"
         style="fill:#002fa7;fill-opacity:1;stroke:none;stroke-width:4.86100912;stroke-miterlimit:4;stroke-dasharray:none;stroke-dashoffset:0;stroke-opacity:1" />
      <g
         transform="translate(1.0913264,-0.12445102)"
         id="g3613">
        <g
           id="g1451"
           transform="matrix(0.39408694,0,0,0.35440131,12.406673,-100.51434)"
           inkscape:export-filename="/Users/ahiram/Desktop/drosophila2.png"
           inkscape:export-xdpi="96"
           inkscape:export-ydpi="96">
          <path
             style="fill:#c8c8c8;fill-opacity:1;stroke:none;stroke-width:0.26458332px;stroke-linecap:butt;stroke-linejoin:miter;stroke-opacity:1"
             d="m -229.32004,4.4533557 c 0.51977,-5.6293836 1.02143,-12.5387702 -6.73037,-14.6030257 2.00616,-7.224943 14.30113,-10.407853 22.65171,-15.140347 -8.74171,3.376381 -18.19792,4.341286 -25.06453,14.046136 l -2.19778,-0.884251 c 5.32958,-7.373487 12.57687,-13.675309 26.41262,-16.29535 -11.92649,0.04953 -21.52915,5.521325 -29.68056,14.379362 -7.14589,-1.566384 -11.92187,-1.060089 -16.68339,-0.716287 3.27169,-6.192236 10.75009,-11.449648 16.14881,-17.169213 -7.17957,3.238978 -13.8079,10.612177 -20.50294,17.485121 -15.49322,0.06181 -24.55517,12.0152733 -31.16816,15.8444016 -1.84126,0.4405211 -3.04267,2.3892484 -6.01357,0.1670435 -5.07646,-5.096393 -9.59009,-14.0669951 -12.52825,-18.7088671 l 4.00717,8.2026006 -3.32203,-2.3143716 c 1.87241,1.9256834 2.50405,1.4366479 4.54815,4.7413811 l 3.05206,6.0413268 c 2.66602,5.1064718 -1.61177,4.7111854 -5.77971,5.078121 l -13.41363,-8.2332402 c -3.57255,-3.8573052 -2.82573,-3.768236 -3.92547,-7.1013487 0.29238,3.1088984 1.91804,6.1687557 -0.64538,4.2936612 l -11.01424,-6.7324952 7.55033,6.2474245 -6.74855,2.0379305 c 2.66004,-0.3737706 6.74855,-2.0379305 7.95127,-1.1024871 l 5.54585,3.5079127 -12.96258,5.0781208 c 8.01811,-1.73725182 11.99372,-5.8799294 15.80232,-3.1404169 2.99823,1.32977282 2.77092,2.3585081 9.58829,6.7485555 -9.1066,4.081865 -8.45971,4.670825 -12.82893,12.027129 0,0 -2.00451,5.078121 -2.00451,7.750816 4.23509,10.801695 5.00453,10.708654 13.49709,10.156241 -1.21338,5.780709 1.27857,8.152478 2.13816,13.497112 l -1.2027,11.893493 0.53453,11.492591 c 1.52675,3.587072 10.02261,15.367991 10.02261,15.367991 -4.32483,4.580694 2.96747,32.964573 6.68173,25.390613 l 11.0917,3.0736 c -0.28187,6.16396 -3.75049,9.87704 -5.05137,14.97392 -2.25924,8.85178 -0.291,15.36875 -4.87836,22.23812 -4.55863,6.82633 -15.65441,14.01734 -23.74623,18.91456 l -17.63979,14.43255 c -38.05621,15.72422 -25.6107,19.1482 3.74176,5.34539 2.67269,-1.60361 30.20146,-22.71791 33.40868,-23.78699 3.20725,-1.06908 8.55266,-6.949 8.55266,-6.949 15.60526,-9.94115 7.60909,-26.18984 15.76889,-41.96132 l 4.81084,-7.48355 9.62171,-6.41446 11.22532,0.53453 5.87993,2.6727 12.2944,9.6217 6.41446,3.74178 -7.48354,5.34539 -10.15625,-2.6727 -6.949,1.06908 -4.27632,8.01809 -5.87992,16.03617 -6.41446,17.63979 -2.67272,17.10524 -0.26726,8.55263 -25.3906,39.55589 -14.43257,21.38156 -2.67269,4.81085 -8.55263,2.13816 -7.48353,5.34539 c 0,0 -2.13817,4.2763 0.53454,5.3454 2.67269,1.06908 6.94899,0.53454 9.62171,-0.53456 2.67268,-1.06908 8.5526,-6.41445 8.5526,-6.41445 l 8.55263,-8.01809 12.29439,-17.63979 14.96711,-22.45064 c 10.56062,-11.81275 17.91556,-17.99451 17.10525,-32.60688 1.224,-16.69122 2.74793,-40.80752 13.89801,-44.90128 6.71617,-1.67904 19.56945,11.14381 18.70887,13.89801 8.39193,8.47019 22.1772,6.75952 30.9934,6.46509 7.82564,-0.26135 9.91139,10.7375 16.58058,0.48392 l 4.81085,-10.15624 v -1.06908 l 8.01808,16.57071 -4.27631,4.81085 c -3.15289,10.20515 -9.07161,28.87554 -13.09621,38.75408 -5.50578,17.3414 -3.18699,20.98978 2.6727,18.4416 8.39787,-11.07218 14.65839,-50.39242 21.11429,-58.26476 4.76632,15.47776 18.67861,14.03801 28.86511,8.01809 6.52491,2.79068 6.46021,4.62791 4.81085,11.22532 l -7.75081,5.34539 c 8.21134,5.43839 9.99668,-5.0396 9.77627,-0.90689 -0.66727,12.51099 10.96675,70.39697 8.13078,70.39697 1.45238,14.37318 29.267078,46.80981 22.450643,23.51972 -14.929813,-23.07207 -23.982563,-63.46928 -19.243403,-91.40618 l 5.34539,-8.01809 c 10.962684,15.07792 21.969109,-4.87074 29.399646,-11.22532 3.227165,6.32208 5.444868,11.09135 11.759858,13.89802 -4.22794,13.55002 -10.325767,21.50596 -1.603618,32.60688 l 26.726953,37.41773 20.579754,34.21052 4.543582,22.98516 c 12.6526174,24.20752 7.7296441,-14.68125 2.138156,-26.72696 -14.550871,-28.29275 -30.725362,-51.75342 -47.039436,-76.97362 l 10.156242,-13.89801 25.657874,19.77794 c 35.445341,18.8281 67.37189,28.05028 78.042702,-26.45967 6.620934,-29.58054 -10.92345,-64.60718 -36.348656,-84.72445 l 135.238383,59.86837 c 8.35121,3.85203 59.56935,26.22371 63.0756,18.17433 0.69307,-3.69435 -2.01786,-5.3463 -4.81085,-6.94901 -2.43097,-0.89135 -24.32153,-14.16528 -24.32153,-14.16528 -3.51995,-5.39766 26.57838,3.37545 22.71791,-0.53454 C 213.1005,158.28711 92.475256,108.04044 33.408692,79.442604 l -60.937451,-26.459683 -15.768903,-5.61266 c -7.222207,-7.099967 -11.424625,-8.160272 -20.847024,-11.091684 5.990535,-0.629858 10.738019,-2.10432 9.220799,-9.087166 l -0.935442,-8.68626 c 8.635476,-6.13271 31.435908,-3.516477 51.5830183,-2.539061 C -21.248512,13.827272 -36.723023,9.292149 -58.727252,15.204576 -72.01294,11.417636 -71.2287,11.009172 -84.858075,9.2843535 -97.917588,6.6474407 -73.049413,5.0064758 -35.546847,8.0816401 -41.352649,4.4125561 -80.911276,2.0287709 -94.212509,4.7407718 l -10.271641,4.9887129 c 0,0 -1.76477,-1.1073058 -0.61166,-5.1390376 12.666313,-6.0556967 20.11555,-3.0867342 47.674109,-4.62186348 -15.515626,-2.50756272 -36.030876,-2.13755042 -48.051139,1.26362928 1.86684,-8.5992837 -10.34301,-11.1683918 -10.51657,-11.1817684 16.191746,-1.0390405 26.603298,-0.5904845 44.490879,1.4822613 -27.604435,-4.6315858 -33.853719,-4.4999368 -49.274879,-3.7714168 -4.89066,-1.617578 -21.42644,-7.834108 -36.74705,-7.465029 -2.9208,-0.592535 16.4973,-1.444394 44.98893,-8.155714 -16.76462,2.985189 -38.73544,5.262524 -53.11672,6.41218 -5.0961,0.407387 -6.82008,-0.590416 -10.82284,-0.324209 -15.37263,1.089352 -22.6477,0.333618 -35.74091,8.204292 -6.73857,4.3286303 -14.59282,10.9591608 -17.10804,18.0205467 z"
             id="path1447"
             inkscape:connector-curvature="0"
             sodipodi:nodetypes="ccccccccccccccccccccccccccccccccccccccssccccccccccccccccccccccccccccccccccscccccccccccscccccccccccccccccccscccccccccccccccccccccsccc" />
          <path
             style="fill:#c70000;fill-opacity:1;stroke:none;stroke-width:0.26458332px;stroke-linecap:butt;stroke-linejoin:miter;stroke-opacity:1"
             d="m -235.46445,17.703343 c -20.68676,0.678141 -35.94663,5.326019 -45.97035,19.510675 -7.61127,11.434512 -13.63196,33.200548 -9.62172,37.685005 25.53266,39.438327 69.42038,21.250543 82.05175,-21.381562 1.34259,-14.323571 -1.48595,-27.580315 -26.45968,-35.814118 z"
             id="path1449"
             inkscape:connector-curvature="0"
             sodipodi:nodetypes="ccccc" />
        </g>
        <g
           id="g1150"
           transform="translate(47.441575,227.77612)">
          <path
             style="fill:#dcdcdc;fill-opacity:1;stroke:none;stroke-width:0.39204964px;stroke-linecap:butt;stroke-linejoin:miter;stroke-opacity:1"
             d="m -189.18199,-77.85443 c -4.52158,3.86956 -8.54855,7.92459 -11.27018,12.46914 0.0347,1.72877 0.9332,5.04128 -0.23978,4.55603 0.52469,1.63938 2.7273,3.5437 -0.71937,4.55603 -2.19389,2.80239 2.60457,2.10742 4.48579,2.72248 0.25068,-1.86061 0.68183,-1.6455 2.33723,-2.90409 4.45665,-0.94835 9.7744,1.34039 12.36025,-3.17547 4.14113,1.18368 12.56733,0.67397 12.56733,0.67397 0,0 3.64781,0.81872 6.37616,-0.67397 2.11402,3.22249 4.5793,5.88296 7.81994,7.30284 1.91546,2.45673 3.82717,4.92529 7.28691,2.5286 6.45675,5.75831 9.47307,1.89755 11.59296,4.5103 6.14141,5.70893 7.73835,1.44424 10.34188,0.28552 3.64041,0.60219 7.28081,1.74508 10.92121,1.3176 0.28068,-0.0329 1.76994,7.11336 9.82676,2.99864 4.59373,0.4669 9.31262,0.80865 15.02049,0.16143 7.39099,7.648441 7.55534,1.60434 11.11673,1.99669 5.28096,-1.59806 10.56191,-0.40444 15.84287,-0.14274 4.11826,2.86586 7.99866,4.42348 10.77394,-0.0971 8.13068,-0.0111 15.77387,-3.21976 18.73412,-1.2249 3.68578,2.48381 6.08564,3.01894 8.84185,0.98511 6.80169,-1.46729 13.7592,-4.85264 16.39461,-5.14303 4.41531,-0.4865 11.55643,6.44072 14.77824,-2.0507 8.0394,-1.32676 10.79962,-3.46571 13.05708,-5.682 10.445908,5.84962 10.838308,2.87177 12.360775,0.88618 9.381275,2.74253 9.760636,-4.85047 13.668088,-8.39269 4.743324,0.12881 11.747176,-4.93705 3.129157,-5.00054 -4.528548,-0.0334 0.339279,-9.92902 4.783953,-13.70317 0.807323,-2.4086 -0.167746,-4.03295 -4.994467,-3.96257 0.976763,-0.65772 2.700021,-2.2844 4.491898,-2.99148 1.381316,-0.54508 3.31208,-0.26605 4.464399,-1.17268 1.884172,-1.48244 2.254613,-4.77651 4.720766,-5.74471 7.370903,-2.89377 15.116552,-4.65539 12.898601,-7.94954 -0.07038,-1.27648 1.940602,-3.6438 -18.486398,1.17958 -2.56988,0.60682 -5.801681,-0.76321 -8.940316,0.76964 -1.931448,0.94329 -3.609574,2.53213 -5.029858,4.10124 -4.174792,2.1193 -8.499182,2.73145 -9.50767,1.2673 -0.748749,-1.08703 -3.735271,1.14975 -6.763031,0.81689 -2.836967,1.26476 -4.205256,2.92532 -5.831137,4.51645 -1.14945,-0.61209 -2.32394,-1.17408 -4.13772,-0.45749 -1.42413,1.51467 -2.60931,3.10899 -2.69039,5.07134 -4.42829,0.51986 -9.08385,1.72097 -13.39438,0.96367 -2.03774,-0.358 -3.96224,-1.57536 -5.92195,-0.12114 -4.46381,3.31242 -10.9364,4.77646 -18.83271,3.4572 -2.59163,-1.92933 -5.1563,-1.24507 -7.75286,-1.28177 -5.7046,3.77093 -10.9629,1.9257 -17.50814,1.70357 -1.70114,-1.1106 -2.35378,-2.10065 -6.0446,-1.47832 -4.23887,1.93361 -11.12729,2.12908 -17.77756,1.87051 -1.2783,-1.41986 -2.2314,-3.02265 -7.0057,-2.47601 -5.334,0.13868 -9.77889,1.31465 -16.31846,0.0468 -1.88099,-1.27291 -3.76199,-2.07487 -5.64298,-1.99425 -2.92126,-2.22879 -8.27423,-1.29341 -12.6071,-1.6854 -0.98257,-2.78806 -2.96679,-3.69807 -5.75749,-3.09588 -5.17119,-1.60268 -7.58393,2.17591 -16.42701,-0.24281 -1.06433,-1.66189 -1.93831,-3.52771 -6.07221,-1.90076 -5.76921,1.27673 -14.25088,8.33285 -15.95387,6.13271 -0.96251,-1.24349 -4.10792,-3.14406 -5.86713,-2.77564 -2.49983,2.58113 -9.51322,2.38468 -14.62724,3.35708 -2.69281,1.67299 -3.99242,4.59896 -8.87228,4.31624 z"
             id="path950"
             inkscape:connector-curvature="0"
             sodipodi:nodetypes="cccccccccccccscccccscsccccsccssscsscsccccssccccccccccccscccc" />
          <path
             style="fill:none;stroke:#000000;stroke-width:0.2;stroke-linecap:butt;stroke-linejoin:miter;stroke-miterlimit:4;stroke-dasharray:0.2, 0.2;stroke-dashoffset:0;stroke-opacity:1"
             d="m -186.2804,-75.28446 c 2.48573,0.20807 -0.8831,-0.34496 4.22544,7.40193 1.1052,2.59353 0.271,4.31183 -0.59698,6.13275"
             id="path952"
             inkscape:connector-curvature="0"
             sodipodi:nodetypes="ccc" />
          <path
             style="fill:none;stroke:#000000;stroke-width:0.2;stroke-linecap:butt;stroke-linejoin:miter;stroke-miterlimit:4;stroke-dasharray:0.2, 0.2;stroke-dashoffset:0;stroke-opacity:1"
             d="m -163.89642,-82.02544 c 0.7371,2.75726 1.51532,5.54881 0.93257,7.20621 0.19526,2.40722 0.0861,3.74881 -0.16955,4.57806 0.50988,3.78308 -0.28032,5.48603 -0.8478,7.54533"
             id="path954"
             inkscape:connector-curvature="0"
             sodipodi:nodetypes="cccc" />
          <path
             style="fill:none;stroke:#000000;stroke-width:0.2;stroke-linecap:butt;stroke-linejoin:miter;stroke-miterlimit:4;stroke-dasharray:0.2, 0.2;stroke-dashoffset:0;stroke-opacity:1"
             d="m -142.02345,-87.19696 c 0.0794,0.13227 1.04007,6.56584 0.42389,6.01931 -0.85529,1.43987 -2.16825,7.09422 -1.61079,6.69753 0.0784,2.26025 -1.59989,9.46394 -1.52602,9.6648 0.80708,2.19453 -2.39953,9.74552 -2.88249,8.98657"
             id="path956"
             inkscape:connector-curvature="0"
             sodipodi:nodetypes="cccsc" />
          <path
             style="fill:none;stroke:#000000;stroke-width:0.2;stroke-linecap:butt;stroke-linejoin:miter;stroke-miterlimit:4;stroke-dasharray:0.2, 0.2;stroke-dashoffset:0;stroke-opacity:1"
             d="m -120.74393,-84.90793 c 0.16956,0.50867 -0.30395,6.3926 -0.16956,7.37577 0.21283,1.55689 -0.4216,4.43748 -1.35646,5.2563 -1.31446,1.9853 -0.14655,4.55018 -0.76302,5.76496 -1.05581,2.08034 -1.45321,5.55687 -1.18689,6.27365 0.34595,0.93111 0.40407,5.34179 -0.76302,5.25629 -1.47947,-0.10839 -3.89158,5.22941 -3.73028,5.2563"
             id="path958"
             inkscape:connector-curvature="0"
             sodipodi:nodetypes="cscsssc" />
          <path
             style="fill:none;stroke:#000000;stroke-width:0.2;stroke-linecap:butt;stroke-linejoin:miter;stroke-miterlimit:4;stroke-dasharray:0.2, 0.2;stroke-dashoffset:0;stroke-opacity:1"
             d="m -102.09257,-78.29517 c -0.6333,0.10555 -0.12847,4.69839 0.59346,6.52798 0.71572,1.81381 -1.79822,6.95706 -1.69558,7.96922 0.35567,3.50706 -0.88186,6.54384 -0.93256,6.18886 1.07595,-0.61483 -0.1095,5.14093 -1.10214,6.35842 -0.96539,1.18409 -3.30201,5.31209 -2.45858,5.17152"
             id="path960"
             inkscape:connector-curvature="0"
             sodipodi:nodetypes="csscsc" />
          <path
             style="fill:none;stroke:#000000;stroke-width:0.2;stroke-linecap:butt;stroke-linejoin:miter;stroke-miterlimit:4;stroke-dasharray:0.2, 0.2;stroke-dashoffset:0;stroke-opacity:1"
             d="m -79.45659,-75.15835 c -0.89975,-0.13057 -0.87671,5.27572 -0.0848,5.59541 0.9426,0.3805 -0.49542,5.44546 -1.10214,6.4432 -1.01564,6.87366 -0.4104,17.05869 -0.33911,16.61667 -0.19057,2.97542 -1.56927,3.63713 -2.54336,5.08674"
             id="path962"
             inkscape:connector-curvature="0"
             sodipodi:nodetypes="csccc" />
          <path
             style="fill:none;stroke:#000000;stroke-width:0.2;stroke-linecap:butt;stroke-linejoin:miter;stroke-miterlimit:4;stroke-dasharray:0.2, 0.2;stroke-dashoffset:0;stroke-opacity:1"
             d="m -55.88803,-75.7518 c 0.36118,2.93989 1.57492,5.75798 0.50866,8.90179 -0.13973,2.45179 -0.85318,3.94734 0.25435,8.47789 -0.46008,3.18575 -0.0197,5.85694 1.10212,8.13878 -0.69588,2.47173 -0.50897,5.70012 -2.62815,6.95187"
             id="path964"
             inkscape:connector-curvature="0"
             sodipodi:nodetypes="ccccc" />
          <path
             style="fill:none;stroke:#000000;stroke-width:0.2;stroke-linecap:butt;stroke-linejoin:miter;stroke-miterlimit:4;stroke-dasharray:0.2, 0.2;stroke-dashoffset:0;stroke-opacity:1"
             d="m -31.55648,-77.27782 c 0.78636,2.57162 0.76743,5.14325 -0.25433,7.71488 -0.50221,5.09038 0.96661,6.9778 2.20425,9.24091 1.34896,1.48384 1.31554,10.13694 0.59345,9.41046 1.25253,1.95616 -0.15435,6.53975 -0.59345,5.84975"
             id="path966"
             inkscape:connector-curvature="0"
             sodipodi:nodetypes="ccccc" />
          <path
             style="fill:none;stroke:#000000;stroke-width:0.2;stroke-linecap:butt;stroke-linejoin:miter;stroke-miterlimit:4;stroke-dasharray:0.2, 0.2;stroke-dashoffset:0;stroke-opacity:1"
             d="m -6.54669,-78.04083 c -0.77216,2.06295 -0.3157,4.1259 0,6.18886 0.56053,2.24652 1.53919,3.23867 2.54338,4.15417 1.52796,4.10055 0.57803,4.48428 0.84779,6.69753 0.87444,2.32289 1.97976,3.83771 3.30637,4.57807 0.46055,3.43556 0.0692,4.65636 -0.59344,5.17151"
             id="path968"
             inkscape:connector-curvature="0"
             sodipodi:nodetypes="cccccc" />
          <path
             style="fill:none;stroke:#000000;stroke-width:0.2;stroke-linecap:butt;stroke-linejoin:miter;stroke-miterlimit:4;stroke-dasharray:0.2, 0.2;stroke-dashoffset:0;stroke-opacity:1"
             d="m 20.83691,-84.82315 c 0.338403,-0.1692 3.096096,7.70468 3.391159,9.49524 0.380265,2.30761 1.695581,2.88249 1.780368,3.73028 -0.729739,1.79804 0.912425,7.31447 1.441236,6.69753 -0.678321,3.24993 0.14462,5.29888 0.508674,7.71489"
             id="path970"
             inkscape:connector-curvature="0"
             sodipodi:nodetypes="csccc" />
          <path
             style="fill:none;stroke:#000000;stroke-width:0.2;stroke-linecap:butt;stroke-linejoin:miter;stroke-miterlimit:4;stroke-dasharray:0.2, 0.2;stroke-dashoffset:0;stroke-opacity:1"
             d="m 36.775353,-89.48599 c 2.540304,2.71292 3.846389,5.42585 3.899836,8.13878 1.474057,2.09425 2.256205,3.72723 2.373813,4.91718 l 0.423888,1.69557 c 0.32784,2.31019 0.28072,5.08909 1.441236,6.35843"
             id="path972"
             inkscape:connector-curvature="0"
             sodipodi:nodetypes="ccccc" />
          <path
             sodipodi:nodetypes="ccc"
             inkscape:connector-curvature="0"
             id="path988"
             d="m -184.6929,-75.28446 c 2.48573,0.20807 -0.8831,-0.34496 4.22544,7.40193 1.1052,2.59353 0.271,4.31183 -0.59698,6.13275"
             style="fill:none;stroke:#000000;stroke-width:0.2;stroke-linecap:butt;stroke-linejoin:miter;stroke-miterlimit:4;stroke-dasharray:0.2, 0.2;stroke-dashoffset:0;stroke-opacity:1" />
          <path
             sodipodi:nodetypes="cccc"
             inkscape:connector-curvature="0"
             id="path990"
             d="m -162.30892,-82.02544 c 0.7371,2.75726 1.51532,5.54881 0.93257,7.20621 0.19526,2.40722 0.0861,3.74881 -0.16955,4.57806 0.50988,3.78308 -0.28032,5.48603 -0.8478,7.54533"
             style="fill:none;stroke:#000000;stroke-width:0.2;stroke-linecap:butt;stroke-linejoin:miter;stroke-miterlimit:4;stroke-dasharray:0.2, 0.2;stroke-dashoffset:0;stroke-opacity:1" />
          <path
             sodipodi:nodetypes="cccsc"
             inkscape:connector-curvature="0"
             id="path992"
             d="m -140.43595,-87.19696 c 0.0794,0.13227 1.04007,6.56584 0.42389,6.01931 -0.85529,1.43987 -2.16825,7.09422 -1.61079,6.69753 0.0784,2.26025 -1.59989,9.46394 -1.52602,9.6648 0.80708,2.19453 -2.39953,9.74552 -2.88249,8.98657"
             style="fill:none;stroke:#000000;stroke-width:0.2;stroke-linecap:butt;stroke-linejoin:miter;stroke-miterlimit:4;stroke-dasharray:0.2, 0.2;stroke-dashoffset:0;stroke-opacity:1" />
          <path
             sodipodi:nodetypes="cscsssc"
             inkscape:connector-curvature="0"
             id="path994"
             d="m -119.15643,-84.90793 c 0.16956,0.50867 -0.30395,6.3926 -0.16956,7.37577 0.21283,1.55689 -0.4216,4.43748 -1.35646,5.2563 -1.31446,1.9853 -0.14655,4.55018 -0.76302,5.76496 -1.05581,2.08034 -1.45321,5.55687 -1.18689,6.27365 0.34595,0.93111 0.40407,5.34179 -0.76302,5.25629 -1.47947,-0.10839 -3.89158,5.22941 -3.73028,5.2563"
             style="fill:none;stroke:#000000;stroke-width:0.2;stroke-linecap:butt;stroke-linejoin:miter;stroke-miterlimit:4;stroke-dasharray:0.2, 0.2;stroke-dashoffset:0;stroke-opacity:1" />
          <path
             sodipodi:nodetypes="csscsc"
             inkscape:connector-curvature="0"
             id="path996"
             d="m -100.50507,-78.29517 c -0.6333,0.10555 -0.12847,4.69839 0.59346,6.52798 0.71572,1.81381 -1.79822,6.95706 -1.69558,7.96922 0.35567,3.50706 -0.88186,6.54384 -0.93256,6.18886 1.07595,-0.61483 -0.1095,5.14093 -1.10214,6.35842 -0.96539,1.18409 -3.30201,5.31209 -2.45858,5.17152"
             style="fill:none;stroke:#000000;stroke-width:0.2;stroke-linecap:butt;stroke-linejoin:miter;stroke-miterlimit:4;stroke-dasharray:0.2, 0.2;stroke-dashoffset:0;stroke-opacity:1" />
          <path
             sodipodi:nodetypes="csccc"
             inkscape:connector-curvature="0"
             id="path998"
             d="m -77.86909,-75.15835 c -0.89975,-0.13057 -0.87671,5.27572 -0.0848,5.59541 0.9426,0.3805 -0.49542,5.44546 -1.10214,6.4432 -1.01564,6.87366 -0.4104,17.05869 -0.33911,16.61667 -0.19057,2.97542 -1.56927,3.63713 -2.54336,5.08674"
             style="fill:none;stroke:#000000;stroke-width:0.2;stroke-linecap:butt;stroke-linejoin:miter;stroke-miterlimit:4;stroke-dasharray:0.2, 0.2;stroke-dashoffset:0;stroke-opacity:1" />
          <path
             sodipodi:nodetypes="ccccc"
             inkscape:connector-curvature="0"
             id="path1000"
             d="m -54.30053,-75.7518 c 0.36118,2.93989 1.57492,5.75798 0.50866,8.90179 -0.13973,2.45179 -0.85318,3.94734 0.25435,8.47789 -0.46008,3.18575 -0.0197,5.85694 1.10212,8.13878 -0.69588,2.47173 -0.50897,5.70012 -2.62815,6.95187"
             style="fill:none;stroke:#000000;stroke-width:0.2;stroke-linecap:butt;stroke-linejoin:miter;stroke-miterlimit:4;stroke-dasharray:0.2, 0.2;stroke-dashoffset:0;stroke-opacity:1" />
          <path
             sodipodi:nodetypes="ccccc"
             inkscape:connector-curvature="0"
             id="path1002"
             d="m -29.96898,-77.27782 c 0.78636,2.57162 0.76743,5.14325 -0.25433,7.71488 -0.50221,5.09038 0.96661,6.9778 2.20425,9.24091 1.34896,1.48384 1.31554,10.13694 0.59345,9.41046 1.25253,1.95616 -0.15435,6.53975 -0.59345,5.84975"
             style="fill:none;stroke:#000000;stroke-width:0.2;stroke-linecap:butt;stroke-linejoin:miter;stroke-miterlimit:4;stroke-dasharray:0.2, 0.2;stroke-dashoffset:0;stroke-opacity:1" />
          <path
             sodipodi:nodetypes="cccccc"
             inkscape:connector-curvature="0"
             id="path1004"
             d="m -4.95919,-78.04083 c -0.77216,2.06295 -0.3157,4.1259 0,6.18886 0.56053,2.24652 1.53919,3.23867 2.54338,4.15417 1.52796,4.10055 0.57803,4.48428 0.84779,6.69753 0.87444,2.32289 1.97976,3.83771 3.30637,4.57807 0.46055,3.43556 0.0692,4.65636 -0.59344,5.17151"
             style="fill:none;stroke:#000000;stroke-width:0.2;stroke-linecap:butt;stroke-linejoin:miter;stroke-miterlimit:4;stroke-dasharray:0.2, 0.2;stroke-dashoffset:0;stroke-opacity:1" />
          <path
             sodipodi:nodetypes="csccc"
             inkscape:connector-curvature="0"
             id="path1006"
             d="m 22.42441,-84.82315 c 0.338403,-0.1692 3.096096,7.70468 3.391159,9.49524 0.380265,2.30761 1.695581,2.88249 1.780368,3.73028 -0.729739,1.79804 0.912425,7.31447 1.441236,6.69753 -0.678321,3.24993 0.14462,5.29888 0.508674,7.71489"
             style="fill:none;stroke:#000000;stroke-width:0.2;stroke-linecap:butt;stroke-linejoin:miter;stroke-miterlimit:4;stroke-dasharray:0.2, 0.2;stroke-dashoffset:0;stroke-opacity:1" />
          <path
             sodipodi:nodetypes="ccccc"
             inkscape:connector-curvature="0"
             id="path1008"
             d="m 38.362853,-89.48599 c 2.540304,2.71292 3.846389,5.42585 3.899836,8.13878 1.474057,2.09425 2.256205,3.72723 2.373813,4.91718 l 0.423888,1.69557 c 0.32784,2.31019 0.28072,5.08909 1.441236,6.35843"
             style="fill:none;stroke:#000000;stroke-width:0.2;stroke-linecap:butt;stroke-linejoin:miter;stroke-miterlimit:4;stroke-dasharray:0.2, 0.2;stroke-dashoffset:0;stroke-opacity:1" />
        </g>
        <g
           id="g1166"
           transform="matrix(0.28993052,0,0,0.28993052,134.06688,42.637745)">
          <ellipse
             ry="53.672615"
             rx="25.324406"
             cy="56.607147"
             cx="-242.19954"
             id="path1152"
             style="fill:#dcdcdc;fill-opacity:1;stroke:none;stroke-width:0.22827636;stroke-miterlimit:4;stroke-dasharray:0.22827635, 0.22827635;stroke-dashoffset:0;stroke-opacity:1" />
          <g
             id="g1160">
            <path
               style="fill:#e6e6e6;fill-opacity:1;stroke:none;stroke-width:0.26458332px;stroke-linecap:butt;stroke-linejoin:miter;stroke-opacity:1"
               d="m -237.16107,26.14207 c 0,0 0.73303,-15.642122 0.73303,-16.3980744 0,-0.7559525 -0.0478,-6.8241949 3.78173,-13.2137686 0.75595,-1.5119044 10.63475,-10.434301 11.57969,-10.812277 0.94495,-0.377976 13.76567,-8.901772 13.76567,-8.901772 0.64673,0.135811 1.46671,0.156123 0.56697,1.322916 -5.07014,3.420956 -20.63583,12.1703184 -25.32441,20.4107149 -0.99796,1.09169279 -2.75736,12.1448051 -2.64583,12.0952381 l -1.13393,15.308035 z"
               id="path1154"
               inkscape:connector-curvature="0"
               sodipodi:nodetypes="cscccccccc" />
            <path
               sodipodi:nodetypes="cscccccccc"
               inkscape:connector-curvature="0"
               id="path1156"
               d="m -247.23801,26.14207 c 0,0 -0.73303,-15.642123 -0.73303,-16.3980755 0,-0.7559525 0.0478,-6.8241949 -3.78173,-13.2137686 -0.75595,-1.5119044 -10.63475,-10.4342999 -11.57969,-10.8122759 -0.94495,-0.377976 -13.76567,-8.901772 -13.76567,-8.901772 -0.64673,0.135811 -1.46671,0.156123 -0.56697,1.322916 5.07014,3.420956 20.63583,12.170318 25.32441,20.4107138 0.99796,1.09169279 2.75736,12.1448052 2.64583,12.0952382 l 1.13393,15.308036 z"
               style="fill:#e6e6e6;fill-opacity:1;stroke:none;stroke-width:0.26458332px;stroke-linecap:butt;stroke-linejoin:miter;stroke-opacity:1" />
          </g>
        </g>
        <path
           style="fill:none;fill-opacity:1;stroke:#dcdcdc;stroke-width:5;stroke-linecap:butt;stroke-linejoin:miter;stroke-miterlimit:4;stroke-dasharray:none;stroke-opacity:1;marker-start:url(#marker3490)"
           d="M 62.814839,29.501578 C 63.088872,7.5187383 63.271972,-19.380571 42.141977,-25.458014"
           id="path1168"
           inkscape:connector-curvature="0"
           sodipodi:nodetypes="cc" />
        <path
           style="fill:none;fill-opacity:1;stroke:#dcdcdc;stroke-width:5;stroke-linecap:butt;stroke-linejoin:miter;stroke-miterlimit:4;stroke-dasharray:none;stroke-opacity:1;marker-start:url(#marker1632)"
           d="M 47.48732,129.68345 C 58.245674,113.31523 62.677034,109.36387 62.515851,79.846454"
           id="path1170"
           inkscape:connector-curvature="0"
           sodipodi:nodetypes="cc" />
      </g>
    </g>
  </g>
</svg>
